<svg width="250" height="250" viewBox="0 0 250 250" fill="none" xmlns="http://www.w3.org/2000/svg">
<path d="M20 43.3888V116.387C20 124.688 23.2715 132.647 29.1309 138.506L115.068 224.444C127.275 236.651 147.051 236.651 159.258 224.444L224.443 159.258C236.65 147.051 236.65 127.276 224.443 115.069L138.506 29.131C132.646 23.2717 124.687 20.0002 116.387 20.0002H43.4375C30.498 19.9513 20 30.4494 20 43.3888ZM74.6875 59.0138C78.8315 59.0138 82.8058 60.66 85.736 63.5903C88.6663 66.5206 90.3125 70.4948 90.3125 74.6388C90.3125 78.7829 88.6663 82.7571 85.736 85.6874C82.8058 88.6176 78.8315 90.2638 74.6875 90.2638C70.5435 90.2638 66.5692 88.6176 63.639 85.6874C60.7087 82.7571 59.0625 78.7829 59.0625 74.6388C59.0625 70.4948 60.7087 66.5206 63.639 63.5903C66.5692 60.66 70.5435 59.0138 74.6875 59.0138Z" fill="#6B6B6B"/>
</svg>
