<svg width="250" height="250" viewBox="0 0 250 250" fill="none" xmlns="http://www.w3.org/2000/svg">
<path d="M242.139 81.3477C243.701 85.5957 242.383 90.332 239.014 93.3594L217.871 112.598C218.408 116.65 218.701 120.801 218.701 125C218.701 129.199 218.408 133.35 217.871 137.402L239.014 156.641C242.383 159.668 243.701 164.404 242.139 168.652C239.99 174.463 237.402 180.029 234.424 185.4L232.129 189.355C228.906 194.727 225.293 199.805 221.338 204.59C218.457 208.105 213.672 209.277 209.375 207.91L182.178 199.268C175.635 204.297 168.408 208.496 160.693 211.67L154.59 239.551C153.613 243.994 150.195 247.51 145.703 248.242C138.965 249.365 132.031 249.951 124.951 249.951C117.871 249.951 110.937 249.365 104.199 248.242C99.7069 247.51 96.2889 243.994 95.3124 239.551L89.2089 211.67C81.494 208.496 74.2675 204.297 67.7245 199.268L40.5761 207.959C36.2792 209.326 31.494 208.105 28.6132 204.639C24.6581 199.854 21.0448 194.775 17.8221 189.404L15.5272 185.449C12.5487 180.078 9.96082 174.512 7.81238 168.701C6.24988 164.453 7.56824 159.717 10.9374 156.689L32.08 137.451C31.5428 133.35 31.2499 129.199 31.2499 125C31.2499 120.801 31.5428 116.65 32.08 112.598L10.9374 93.3594C7.56824 90.332 6.24988 85.5957 7.81238 81.3477C9.96082 75.5371 12.5487 69.9707 15.5272 64.5996L17.8221 60.6445C21.0448 55.2734 24.6581 50.1953 28.6132 45.4102C31.494 41.8945 36.2792 40.7227 40.5761 42.0898L67.7733 50.7324C74.3163 45.7031 81.5428 41.5039 89.2577 38.3301L95.3612 10.4492C96.3378 6.00586 99.7557 2.49023 104.248 1.75781C110.986 0.585937 117.92 0 125 0C132.08 0 139.014 0.585938 145.752 1.70898C150.244 2.44141 153.662 5.95703 154.639 10.4004L160.742 38.2813C168.457 41.4551 175.683 45.6543 182.226 50.6836L209.424 42.041C213.721 40.6738 218.506 41.8945 221.387 45.3613C225.342 50.1465 228.955 55.2246 232.178 60.5957L234.473 64.5508C237.451 69.9219 240.039 75.4883 242.187 81.2988L242.139 81.3477ZM125 164.062C135.36 164.062 145.296 159.947 152.621 152.621C159.947 145.296 164.062 135.36 164.062 125C164.062 114.64 159.947 104.704 152.621 97.3786C145.296 90.053 135.36 85.9375 125 85.9375C114.64 85.9375 104.704 90.053 97.3785 97.3786C90.0529 104.704 85.9374 114.64 85.9374 125C85.9374 135.36 90.0529 145.296 97.3785 152.621C104.704 159.947 114.64 164.062 125 164.062Z" fill="#6B6B6B"/>
</svg>
