<svg width="250" height="250" viewBox="0 0 250 250" fill="none" xmlns="http://www.w3.org/2000/svg">
<path d="M0 233.871C0 224.963 7.22115 217.742 16.1289 217.742H227.071C235.979 217.742 243.2 224.963 243.2 233.871C243.2 242.779 235.979 250 227.071 250H16.1289C7.22117 250 0 242.779 0 233.871Z" fill="#6B6B6B"/>
<path d="M0 88.7064C0 79.7986 7.22115 72.5775 16.1289 72.5775H227.071C235.979 72.5775 243.2 79.7986 243.2 88.7064C243.2 97.6141 235.979 104.835 227.071 104.835H16.1289C7.22117 104.835 0 97.6141 0 88.7064Z" fill="#6B6B6B"/>
<path d="M0 161.284C0 152.376 7.22115 145.155 16.1289 145.155H227.071C235.979 145.155 243.2 152.376 243.2 161.284C243.2 170.192 235.979 177.413 227.071 177.413H16.1289C7.22117 177.413 0 170.192 0 161.284Z" fill="#6B6B6B"/>
<path d="M0 16.1289C0 7.22115 7.22115 0 16.1289 0H227.071C235.979 0 243.2 7.22115 243.2 16.1289C243.2 25.0366 235.979 32.2578 227.071 32.2578H16.1289C7.22117 32.2578 0 25.0366 0 16.1289Z" fill="#6B6B6B"/>
</svg>
