<svg width="250" height="250" viewBox="0 0 250 250" fill="none" xmlns="http://www.w3.org/2000/svg">
<path fill-rule="evenodd" clip-rule="evenodd" d="M3.02778 15.1667C-8.9407e-07 21.1111 0 28.8889 0 44.4444V52.9722L249.861 30.25C249.597 23.4722 248.889 18.9444 246.972 15.1667C244.309 9.94017 240.06 5.69089 234.833 3.02778C228.889 -8.9407e-07 221.111 0 205.556 0H44.4444C28.8889 0 21.1111 -8.9407e-07 15.1667 3.02778C9.94017 5.69089 5.69089 9.94017 3.02778 15.1667ZM250 58.1389L182.431 64.2778L217.236 249.931C225.458 249.75 230.611 249.125 234.833 246.972C240.06 244.309 244.309 240.06 246.972 234.833C250 228.889 250 221.111 250 205.556V58.1389ZM189 250L154.639 66.8056L0 80.8611V205.556C0 221.111 -8.9407e-07 228.889 3.02778 234.833C5.69089 240.06 9.94017 244.309 15.1667 246.972C21.1111 250 28.8889 250 44.4444 250H189ZM131.944 167.083C131.944 197.056 102.222 218.111 89.2639 225.875C87.4739 226.954 85.4234 227.524 83.3333 227.524C81.2432 227.524 79.1927 226.954 77.4028 225.875C64.4444 218.111 34.7222 197.056 34.7222 167.069C34.7222 137.667 58.2778 118.056 83.3333 118.056C109.264 118.056 131.944 137.667 131.944 167.083Z" fill="#6B6B6B"/>
<path d="M99.9984 166.667C99.9984 175.871 92.5365 183.333 83.3317 183.333C74.127 183.333 66.665 175.871 66.665 166.667C66.665 157.462 74.127 150 83.3317 150C92.5365 150 99.9984 157.462 99.9984 166.667Z" fill="#6B6B6B"/>
</svg>
