<svg width="512" height="512" viewBox="0 0 512 512" fill="none" xmlns="http://www.w3.org/2000/svg">
<path d="M512 256C512 397.386 397.384 512 256.001 512C114.616 512 0 397.387 0 256C0 114.616 114.616 0 256.001 0C397.386 0 512 114.616 512 256Z" fill="white"/>
<path d="M253.863 91.0127C262.875 96.1806 272.435 102.831 279.712 109.88L276.853 112.738C262.493 111.219 247.369 113.114 233.757 113.323C232.239 111.799 229.18 109.508 232.029 107.594L253.863 91.0127ZM507.771 268.478C507.962 274.927 508.572 280.465 506.043 287.064C479.809 294.487 462.577 266.853 437.123 271.021L440 285.345C463.549 286.115 478.258 308.582 502.587 307.616C499.131 314.484 504.129 332.579 488.816 325.346C472.921 321.546 461.429 307.616 444.011 307.616C441.909 311.455 443.24 316.77 442.871 321.312C461.246 324.18 474.461 339.631 492.831 342.483C491.103 348.764 489.391 355.797 484.217 359.628C469.272 356.009 457.599 342.656 441.689 343.038L438.856 356.191C453.976 356.578 463.746 369.887 477.334 373.882C477.708 379.43 472.723 384.387 469.852 389.339C457.789 385.735 448.589 375.424 434.806 376.185C434.615 371.018 437.697 365.152 436.534 359.628C421.054 364.208 410.673 349.898 399.2 341.314C398.87 313.222 369.145 294.794 367.575 268.478C367.274 263.231 368.078 257.63 370.481 251.611C380.25 229.138 377.181 199.961 366.469 179.008C363.214 173.494 357.446 169.141 352.071 165.9C359.935 182.481 369.519 202.072 364.736 222.453C364.181 238.191 354.847 253.306 354.741 268.478C354.705 273.887 355.865 279.297 358.992 284.759C371.446 307.075 393.852 328.199 385.427 356.186C383.111 364.782 376.212 371.429 374.491 380.178C389.061 392.183 402.837 405.711 422.169 406.473C429.057 402.096 425.231 382.687 439.401 391.639L460.091 401.935C458.584 407.446 453.947 412.384 449.747 416.179C441.897 412.377 434.24 407.821 424.451 408.192C421.565 411.239 419.081 414.658 419.302 419.03C426.19 420.158 432.508 423.051 438.262 427.058C435.591 432.782 430.384 436.37 425.598 440.753L409.548 435.044C406.868 438.859 401.302 442.868 403.255 447.055C406.876 448.598 410.894 450.683 413.56 453.356C406.475 460.975 397.496 465.875 388.856 471.047C381.414 446.846 356.892 429.878 358.997 401.891L357.858 400.759C352.094 407.206 354.02 417.516 354.391 425.883C361.29 443.413 377.744 456.952 380.24 476.175C377.359 481.122 370.863 482.109 365.88 484.203C366.458 449.545 313.617 423.258 347.503 388.2C358.804 371.034 377.739 354.652 371.03 331.017C364.142 308.198 339.779 294.059 339.994 268.478L340.032 266.483C345.581 239.806 362.438 211.42 348.648 183.041C344.804 171.626 336.218 158.655 324.538 153.884C341.951 173.714 348.854 206.067 338.892 232.749C333.872 243.363 326.959 256.007 326.266 268.483H326.224C325.854 274.999 327.192 281.478 331.417 287.622C344.639 308.965 367.603 332.41 354.393 360.224C339.46 382.502 313.421 405.163 327.963 434.506C338.493 452.031 354.782 469.518 350.388 491.061L333.156 496.77C344.644 456.587 288.345 432.977 311.913 392.781C326.464 371.256 352.488 351.061 337.756 322.493C328.949 304.792 310.751 294.316 311.326 272.196L311.953 268.481C317.882 237.109 341.853 207.413 325.092 173.888C320.687 163.989 311.885 153.896 302.116 148.177L301.526 148.764C321.066 167.623 327.011 198.651 316.476 223.593C311.56 238.227 300.772 252.805 298.579 268.487C297.536 275.881 298.416 283.544 302.71 291.616C315.154 311.221 336.977 332.017 323.359 357.364C309.018 378.299 285.077 398.67 294.639 425.895C305.173 449.714 327.168 472.405 315.292 501.94L297.51 505.935C311.674 477.151 290.436 448.591 277.996 423.628C262.861 387.813 310.512 370.664 311.276 337.92C311.095 316.786 288.512 304.786 283.739 285.357C273.965 277.153 263.834 288.619 252.149 286.491C243.522 288.215 230.273 274.677 225.123 289.352C218.991 310.866 191.053 326.683 203.332 352.201C215.015 374.878 243.132 391.461 233.739 420.807C225.33 448.219 197.55 474.319 214.779 505.935C207.702 503.654 194.485 508.02 194.676 496.772C183.767 458.485 230.287 436.179 215.918 397.913C209.232 374.474 178.765 361.525 185.473 333.334C190.431 310.128 216.605 293.905 212.934 268.485C212.636 266.356 212.109 264.178 211.357 261.908C201.588 234.477 181.657 207.04 193.536 175.025C196.798 165.881 203.313 158.073 209.037 149.9C190.08 159.992 180.518 181.334 180.91 203.045C180.084 226.655 197.614 246.88 200.108 268.485C201.089 277.204 199.653 286.133 193.536 295.604C181.101 312.392 164.838 330.093 172.294 352.198C179.383 374.495 207.335 388.002 205.612 413.919C205.423 444.575 169.617 463.663 179.765 497.948L161.944 492.196C154.869 461.73 187.413 446.142 187.786 417.953C192.392 385.536 150.834 373.508 153.328 341.908C153.149 317.899 174.392 302.693 183.774 282.497C185.383 277.583 185.919 272.939 185.703 268.487C184.554 246.157 164.33 228.7 167.686 203.594C168.815 185.118 175.134 168.922 187.201 155.026C170.552 161.681 163.674 180.748 159.075 196.752C151.094 222.413 170.146 245.496 172.056 268.488C172.903 278.641 170.409 288.735 160.807 299.056C147.013 315.228 133.025 335.632 142.984 357.367C153.53 381.349 186.66 400.016 172.29 429.928C164.45 448.789 145.678 463.067 146.449 485.347C141.475 483.251 136.315 481.162 132.087 477.362C132.087 448.985 172.662 431.26 153.33 401.353C151.617 407.254 151.249 415.273 149.908 421.939C143.199 439.282 128.845 453.164 123.473 471.093C114.49 467.644 105.098 460.398 97.6262 452.779L107.976 446.478C106.826 442.661 103.767 439.426 101.093 436.188C94.3715 435.248 89.9584 439.635 84.418 441.354C79.6315 437.155 75.0118 433.344 71.196 428.201C74.6315 418.467 101.475 426.517 87.8758 410.511C78.6951 404.8 69.48 412.958 61.4405 416.766L50.542 403.071C59.9241 397.362 69.2821 389.343 80.9516 391.642C83.8277 396.795 84.0273 404.372 89.5677 407.062C109.292 406.68 123.268 391.838 138.389 380.214C127.85 364.612 119.272 343.074 128.633 324.207C136.134 305.301 155.678 289.378 156.564 268.476C156.764 263.719 156.018 258.714 153.927 253.327C143.593 226.845 139.946 191.055 159.671 167.616C148.946 170.482 142.623 183.781 138.979 193.878C127.122 219.737 142.118 243.693 142.636 268.475C142.707 272.932 142.344 277.4 141.258 281.9C131.106 302.28 114.659 320.163 111.988 343.615C100.304 351.03 90.7123 363.996 74.0652 359.621C73.48 363.998 74.8208 370.669 76.3475 375.626C63.1461 375.075 54.1444 384.755 43.0292 389.327C37.1084 387.437 35.5679 379.822 33.2753 374.493C46.2856 370.121 55.6711 357.145 70.6091 357.35C72.3406 352.564 69.6384 348.179 68.8759 343.612C50.2942 335.406 20.8399 384.175 18.3632 341.893C36.9311 340.749 48.7968 323.601 67.1857 321.892L67.7348 308.197C46.8656 306.099 33.4406 327.444 12.58 325.339L7.97937 307.063C32.1101 308.563 46.487 287.049 69.468 285.891C72.5213 281.896 72.8896 275.99 73.4783 270.471C48.394 267.219 31.1807 294.876 4.55769 286.477C4.55769 286.477 3.64031 274.966 3.14289 268.476H3.17904C2.99832 265.939 2.8262 264.17 2.8262 264.17C26.5662 273.334 47.425 256.37 67.7348 247.613C72.9 246.075 80.955 248.741 83.2717 243.032C83.0703 238.65 91.103 233.527 84.4163 230.468C54.7245 226.46 34.9999 262.089 4.55425 245.888L2.27026 241.308C8.60415 155.218 57.4061 71.9865 138.389 31.0282C171.187 12.3805 211.934 2.87507 253.027 2.53773C302.619 2.12847 352.729 15.0706 390.006 41.323C426.205 63.4144 460.832 99.8211 479.623 136.779C497.596 169.16 505.868 205.495 508.337 244.178C476.93 267.788 455.859 221.934 423.876 232.196C425.599 237.159 426.553 242.292 430.209 246.483C458.554 246.284 478.074 275.812 507.745 264.175L507.771 268.478ZM146.994 162.451C127.079 149.494 101.829 161.694 83.2683 168.751C81.5454 151.408 74.4662 135.608 59.7055 124.18C58.2735 123.471 56.2942 121.979 54.5111 121.87C53.4439 121.803 52.4284 122.231 51.6402 123.589C58.3303 164.537 31.5748 193.11 12.6145 224.172C18.9277 229.306 29.0705 228.539 36.728 227.03C56.8277 219.033 75.974 205.115 99.9068 209.886C106.984 197.885 118.876 186.262 128.626 176.738C134.583 171.609 142.767 168.352 146.994 162.451ZM207.893 188.168C207.511 190.633 208.084 195.029 211.905 193.33C217.85 185.14 228.375 191.62 234.881 192.197V189.892C231.311 184.315 223.967 181.513 216.509 181.793C214.788 181.852 213.039 182.102 211.356 182.491C208.86 183.043 207.123 185.315 207.893 188.168ZM301.517 163.628C296.171 151.814 283.916 147.033 272.796 144.177C267.345 143.509 261.688 143.057 256.077 143.004C255.025 142.994 253.975 142.98 252.929 143.004C237.233 143.319 222.237 147.328 213.075 160.181C211.76 163.809 205.979 168.905 211.347 172.157C223.411 171.39 237.177 169.885 245.218 180.185C245.218 189.337 251.158 201.514 241.206 205.896C232.96 198.3 223.194 209.129 214.221 203.033C210.003 200.553 207.333 203.447 205.605 207.065C203.111 230.681 215.54 256.743 237.746 269.882C246.746 273.112 258.844 276.184 268.237 271.601C290.829 261.135 300.187 237.148 304.393 215.049C303.829 210.843 304.03 202.648 298.099 202.449C291.402 206.663 281.634 204.173 274.536 202.449C270.34 203.797 270.147 209.905 265.371 211.062L262.46 208.752C259.968 198.291 258.431 183.428 268.206 176.19C279.128 171.808 291.956 169.893 303.252 173.332C305.36 169.715 302.106 166.867 301.517 163.628ZM289.99 182.411C289.231 182.43 288.493 182.467 287.746 182.491C283.734 185.154 272.042 183.239 276.262 192.197C283.543 186.467 293.691 190.483 300.966 193.33C303.657 192.002 303.073 189.334 303.25 187.034C300.915 182.71 295.333 182.305 289.99 182.411ZM373.353 101.871C359.181 101.123 347.314 109.126 334.292 112.748C333.157 101.724 341.576 90.0812 343.496 79.0141C322.441 80.3617 305.765 92.9699 288.347 103.042C284.316 93.3518 280.273 83.6118 276.269 73.8855L299.245 52.1641L299.834 49.3027L268.8 47.5835C263.454 38.2647 261.347 27.0401 255.028 18.4679C249.858 28.1822 246.385 38.4633 241.22 48.1691L210.221 49.8934V52.1641L233.748 73.2982C230.872 84.1615 228.199 95.9649 221.122 104.176C207.337 95.9615 193.748 87.0211 178.635 81.3172C174.998 80.1494 169.814 78.2504 166.559 80.7316C171.339 91.2113 178.032 102.484 176.907 113.923C170.585 112.765 165.616 108.732 159.676 107.037C152.573 105.109 144.144 101.342 137.253 103.633C148.743 119.625 158.122 136.362 161.366 155.607C199.485 137.303 243.939 127.236 290.083 135.058C311.713 138.483 331.603 147.249 350.944 154.47C351.699 134.29 364.527 118.073 373.353 101.871ZM438.813 211.607C458.327 216.745 477.904 237.898 498.568 224.174C480.572 194.462 453.785 167.025 461.234 128.171C462.014 125.519 460.291 122.834 457.813 122.457C446.138 127.204 437.097 138.648 432.477 149.896C430.577 156.549 429.451 163.621 426.775 169.891C412.789 162.65 397.864 155.634 380.825 157.33C374.68 158.092 365.871 158.492 364.737 164.768C384.074 175.049 399.976 192.207 411.827 210.478C420.078 209.139 430.197 210.283 438.813 211.607ZM234.328 238.458L234.879 241.902C242.361 246.861 244.662 255.265 255.02 254.502C264.206 255.044 271.097 246.483 275.674 239.63C263.244 237.922 248.118 240.565 234.328 238.458ZM244.672 223.038C245.046 224.564 243.724 226.85 245.812 227.621C251.939 226.297 263.039 230.864 266.46 223.626C264.071 220.963 260.171 219.754 256.078 219.754C251.987 219.754 247.741 220.941 244.672 223.038Z" fill="#007042"/>
<path opacity="0.99" d="M234.342 216.429H276.324V233.589H234.342V216.429Z" fill="white"/>
<path d="M242.097 225.604C247.522 226.881 248.865 228.796 253.152 229.33C257.71 229.249 257.053 228.328 265.003 225.599C265.524 225.415 266.242 224.27 265.352 223.391C260.416 218.516 257.004 221.999 253.91 222.092C249.805 222.136 245.954 218.595 241.944 223.198C241.261 224.133 240.905 225.051 242.097 225.604Z" fill="#007042"/>
</svg>
