<svg width="512" height="512" viewBox="0 0 512 512" fill="none" xmlns="http://www.w3.org/2000/svg">
<path d="M256 512C397.385 512 512 397.385 512 256C512 114.615 397.385 0 256 0C114.615 0 0 114.615 0 256C0 397.385 114.615 512 256 512Z" fill="#8B1D31"/>
<path d="M236.294 11.3824C248.015 10.7768 259.838 11.0796 271.556 11.1799C292.219 12.9966 312.881 16.7286 332.551 23.587C343.575 27.319 354.208 32.2621 364.837 37.2035C405.368 57.3755 439.436 89.9565 463.276 128.792C483.343 161.574 495.362 199.297 498.141 237.727C500.426 269.299 496.555 301.275 486.82 331.233C477.086 361.191 461.389 389.029 441.224 413.132C415.595 443.694 382.517 467.802 345.661 482.426C321.721 492.215 296.292 497.561 270.663 499.575C260.663 499.679 250.661 499.679 240.661 499.575C214.834 497.558 189.105 491.91 164.966 482.126C159.503 480.109 154.536 476.981 149.073 474.965C113.91 457.518 82.9154 431.389 59.5718 399.519C33.0503 362.805 16.6586 318.519 13.4791 273.13C11.8893 250.034 13.0821 226.836 17.9502 204.24C28.9762 151.485 57.982 102.867 98.7107 68.3726C124.241 46.6866 154.24 30.3433 186.127 20.8637C202.42 15.8203 219.307 13.1973 236.294 11.3824Z" fill="white"/>
<path d="M233.213 17.3345C244.239 16.0231 255.463 16.5283 266.591 16.5283C295.695 18.0405 324.703 24.5978 351.425 36.4997C362.153 41.9463 373.079 47.0901 383.014 53.8481C432.684 85.6193 470.233 136.659 485.13 194.356C497.446 240.048 495.265 289.576 479.766 334.157C469.733 362.804 454.337 389.429 434.471 412.233C410.43 440.276 379.634 462.365 345.76 476.483C318.741 487.679 289.735 493.631 260.631 494.338C223.18 495.146 185.631 486.874 151.955 470.23C102.188 445.921 61.1615 403.357 38.6119 352.115C15.4676 300.37 12.2881 239.953 28.4804 185.584C42.3878 139.585 70.4002 98.1285 107.752 68.3747C143.514 39.4237 187.718 21.4697 233.213 17.3345Z" fill="#8B1D31"/>
<path d="M238.875 62.1182C236.888 50.5191 242.254 38.2141 251.89 31.8574C260.728 31.2536 269.77 32.3644 278.612 32.9682C273.248 38.0117 266.988 43.3579 265.897 51.3271C264.604 60.4054 270.467 67.9697 274.24 75.6343C277.815 82.3924 280.001 91.0692 276.124 98.2304C272.65 104.788 266.986 110.333 260.534 113.662C252.883 112.049 245.532 108.923 237.885 107.207C243.646 101.559 250.699 95.5071 250.3 86.5292C248.909 77.3507 241.061 70.994 238.875 62.1182ZM306.526 37.304C316.558 40.6346 326.289 44.6676 336.126 48.0986C343.08 50.3167 349.832 52.9396 356.689 55.3601C355.203 60.7485 353.578 66.0966 351.817 71.3989C346.453 70.4888 341.587 67.9679 336.221 67.0596C330.524 83.4769 325.094 99.9885 319.932 116.588C312.581 114.671 305.626 111.544 298.372 109.425C299.862 101.255 303.74 93.8929 306.023 86.1261C308.802 77.1482 312.377 68.3745 314.663 59.1942C310.492 57.2772 306.023 56.1681 301.552 54.7563C302.849 48.8028 304.934 43.1555 306.526 37.304ZM178.579 44.467C196.458 41.4409 215.034 53.8497 219.704 71.4992C222.684 81.6865 221.095 93.0849 215.431 101.962C210.863 109.627 203.411 114.973 195.267 117.897C184.936 121.429 173.114 119.813 163.976 113.965C153.049 107.106 146.095 94.3981 146.194 81.3837C146.194 63.229 160.796 46.4844 178.579 44.467Z" fill="white"/>
<path d="M178.578 65.7496C183.049 64.2375 188.113 64.7392 192.187 67.1615C197.65 69.8848 200.532 76.34 200.334 82.3904C200.235 90.2575 193.878 97.6211 186.13 98.5295C177.786 99.9431 168.944 93.8909 167.455 85.3162C165.765 77.148 170.73 68.2705 178.578 65.7496Z" fill="#8B1D31"/>
<path d="M390.762 86.4287C392.65 85.2175 394.635 84.2071 396.622 83.3022C402.782 88.5464 408.544 94.1954 414.7 99.4396C415.798 100.246 416.987 101.557 415.895 102.869C405.462 125.666 395.332 148.563 384.504 171.055C378.646 165.203 372.687 159.253 367.122 153.099C368.613 149.67 370.301 146.443 371.692 143.012C367.718 138.675 363.35 134.742 358.781 131.01C355.406 132.221 352.322 134.239 349.043 135.853C344.378 132.925 340.405 129.195 335.934 126.069C333.85 124.454 331.563 123.245 330.173 121.025C350.43 109.627 370.598 98.0277 390.762 86.4287ZM87.3865 109.222C94.9383 95.0017 111.923 87.4374 127.42 90.6641C126.427 97.4222 124.936 104.281 123.944 111.141C120.168 111.039 116.096 110.535 112.62 112.653C104.572 116.587 100.997 127.48 104.969 135.552C107.651 140.997 113.414 145.031 119.574 144.73C128.115 145.234 135.17 137.87 136.659 129.7C143.312 130.406 149.77 132.019 156.426 132.827C155.434 150.981 138.247 166.011 120.565 165.508C110.037 166.011 99.5065 161.17 92.454 153.404C81.6256 141.703 79.2436 123.043 87.3865 109.222Z" fill="white"/>
<path d="M373.972 120.52C378.842 115.98 384.8 112.956 389.866 108.821C387.38 115.075 383.807 120.723 380.629 126.676C378.146 124.858 376.057 122.74 373.972 120.52Z" fill="#8B1D31"/>
<path d="M244.14 121.227C271.858 118.907 300.364 125.16 324.105 139.988C355.2 158.547 378.441 190.221 386.388 226.029C392.151 251.144 389.965 277.876 381.624 302.081C371.689 329.62 352.514 353.321 328.379 369.061C307.022 382.672 281.986 390.745 256.656 390.442C234.305 390.946 212.156 385.096 192.387 374.61C163.976 359.375 141.426 333.352 130.003 302.892C121.063 278.986 119.076 252.458 124.241 227.444C130.498 197.888 146.889 170.755 170.035 151.692C190.898 134.24 217.123 123.445 244.14 121.227Z" fill="white"/>
<path d="M244.14 124.152C272.054 121.631 300.763 128.489 324.504 143.518C335.332 150.478 345.269 158.748 353.908 168.23C356.59 171.559 359.073 175.09 361.656 178.519C378.245 201.215 387.189 229.559 386.49 257.901C386.589 274.443 383.212 290.984 376.558 306.019C366.919 330.022 349.735 350.799 328.578 365.226C309.702 378.337 287.353 385.903 264.606 387.413C256.062 387.311 247.42 387.816 238.977 386.609C206.693 382.674 176.196 365.93 155.235 340.711C139.341 321.649 128.812 297.84 125.534 273.03C122.056 246.001 126.924 217.758 139.739 193.651C160.103 154.715 200.731 127.481 244.14 124.152Z" fill="#8B1D31"/>
<path d="M283.976 164.6C288.446 159.959 294.704 156.632 301.358 157.036C312.585 156.833 323.209 161.574 332.35 167.929C339.004 171.661 344.372 177.311 349.24 183.061C365.826 203.638 376.156 230.064 374.967 256.892C374.272 270.717 369.404 284.937 359.069 294.316C353.409 299.259 346.553 303.19 339.103 304.401C333.242 305.007 327.184 304.804 321.321 303.896C323.41 291.186 325.593 277.373 320.031 265.164C318.044 259.919 313.674 256.187 309.402 252.757C305.231 249.529 299.172 248.723 296.091 244.082C290.724 236.719 283.671 230.061 274.829 227.339C266.388 224.213 257.347 226.431 248.802 227.843C247.414 220.479 246.918 212.915 247.712 205.449C248.008 197.279 250.891 189.011 256.649 183.26C261.519 178.216 267.975 175.291 274.432 172.972C278.611 171.659 280.896 167.526 283.976 164.6ZM174.805 168.635C181.559 165.105 189.407 165.105 196.657 166.517C200.929 167.223 205.003 169.744 209.372 168.534C214.639 167.223 220.202 166.012 225.566 167.423C231.724 168.432 236.493 172.872 240.763 177.208C243.149 179.933 245.73 182.756 247.121 186.286C246.028 189.916 244.04 193.144 243.345 196.978C241.162 207.671 241.261 218.967 243.546 229.762C235.202 233.392 226.757 237.528 220.103 243.984C214.54 248.522 210.169 254.27 205.005 259.214C205.7 248.724 204.507 238.132 203.814 227.642C203.614 219.272 203.614 210.797 203.713 202.425C203.713 193.651 205.799 184.976 204.904 176.199C201.33 178.116 200.435 182.656 198.944 186.185C192.289 203.837 192.389 223.203 193.381 241.864C194.074 252.558 194.275 263.351 193.779 274.044C193.878 276.663 192.089 278.781 190.995 281.103C186.228 290.082 182.552 299.56 180.467 309.547C180.174 310.724 179.775 311.87 179.274 312.973C168.248 307.227 160.401 296.534 155.037 285.44C145.502 265.066 142.819 241.762 145.502 219.573C147.092 208.276 149.873 196.778 156.23 187.294C161.294 180.033 166.658 172.467 174.805 168.635Z" fill="white"/>
<path d="M281.991 181.747C281.89 180.335 281.199 177.61 283.281 177.512C286.16 180.636 288.246 184.571 290.432 188.303C298.482 202.322 308.311 215.032 318.344 227.541C329.771 241.058 339.703 256.188 344.872 273.33C346.263 278.576 348.152 283.924 347.057 289.369C344.872 289.267 343.879 287.052 342.887 285.336C339.508 279.384 336.528 273.128 333.051 267.181C325.599 255.38 317.259 244.284 308.519 233.594C296.691 218.263 285.465 201.315 281.991 181.747Z" fill="#8B1D31"/>
<path d="M33.846 221.59C33.7454 216.649 41.8919 216.143 43.1834 220.481C43.9775 222.803 43.7781 225.22 43.8786 227.542C42.6859 227.742 41.4949 227.843 40.3038 227.843C40.2033 225.523 40.3038 223.1 40.0039 220.782C38.9134 218.462 36.8261 220.884 37.2231 222.597C36.1309 227.741 39.6069 231.775 41.9907 235.81C44.4733 239.34 43.8786 244.08 43.4816 248.215C42.9823 252.25 37.1226 253.058 34.9382 250.134C33.3484 246.902 33.7454 243.172 34.0436 239.843C34.8394 239.745 36.3286 239.745 37.1226 239.745C37.4208 242.769 36.8261 246.098 38.2148 248.921C40.7979 247.914 40.2016 244.99 40.2016 242.769C40.4009 238.634 37.2214 235.708 35.5328 232.279C33.449 229.154 33.6466 225.22 33.846 221.59ZM83.0159 221.59C82.4212 216.649 90.7653 215.943 92.0551 220.178C92.8492 222.903 92.4521 225.727 92.4521 228.45C91.3582 228.351 90.266 228.351 89.1721 228.351C89.1721 225.626 89.0733 223.003 88.9744 220.282C88.3781 220.38 87.2859 220.483 86.79 220.583C86.0948 230.064 86.393 239.546 86.5924 249.029C87.187 249.029 88.281 248.828 88.7768 248.828C89.1738 246.508 89.1738 244.186 89.075 241.866C90.2677 241.463 91.3599 241.463 92.5527 241.563C92.5527 244.186 92.7503 246.809 92.2545 249.43C90.6648 253.264 82.8165 252.558 83.1147 247.816C82.8182 239.04 82.8182 230.367 83.0159 221.59ZM104.671 220.785C104.075 224.012 104.274 227.343 104.572 230.668C105.864 230.77 107.155 230.872 108.447 231.073C108.447 231.576 108.348 232.788 108.348 233.393C107.056 233.897 105.368 233.696 104.473 234.905C104.177 239.141 104.276 243.48 104.574 247.814C105.865 247.916 107.157 248.119 108.449 248.217C108.35 249.226 108.251 250.335 108.15 251.345C105.865 251.544 103.48 251.544 101.197 251.444C100.699 240.25 100.997 228.955 100.997 217.758H108.447C108.447 218.363 108.348 219.673 108.348 220.282M411.226 217.958C412.218 217.858 413.312 217.756 414.307 217.655V251.648H409.936C410.037 243.58 410.037 235.611 410.037 227.642C410.335 225.927 409.239 224.716 407.847 224.012C407.748 221.49 410.033 219.976 411.226 217.958ZM423.939 219.976C426.817 216.043 434.963 217.254 435.062 222.803C435.26 230.768 435.062 238.738 435.062 246.807C435.56 252.352 427.217 253.766 424.237 250.138C422.944 247.312 423.244 243.984 423.741 241.058C424.934 241.058 426.021 240.957 427.217 240.957C427.614 243.58 426.919 246.606 428.608 248.826C432.479 247.413 430.3 241.864 430.594 238.738C428.315 238.537 424.837 239.243 423.745 236.521C422.944 231.071 422.944 225.324 423.939 219.976ZM442.616 217.858H453.243C453.936 222.599 452.251 227.137 451.455 231.777C449.968 238.333 448.973 245.093 447.284 251.749C445.892 251.749 444.602 251.749 443.313 251.849C444.207 241.662 447.785 231.877 448.477 221.791C446.487 221.791 444.497 221.69 442.517 221.488C442.616 220.28 442.616 219.069 442.616 217.858ZM460.495 222.903C462.083 220.581 463.775 217.457 466.954 217.657C467.055 229.057 466.954 240.454 466.954 251.75H462.582C462.582 243.683 462.78 235.611 462.582 227.642C462.981 225.324 459.501 225.22 460.495 222.903Z" fill="white"/>
<path d="M427.913 222.903C427.419 221.185 431.092 220.481 430.693 222.599C431.09 226.633 430.891 230.769 430.494 234.905C429.799 234.905 428.41 234.803 427.713 234.803C427.715 230.769 427.417 226.838 427.913 222.903Z" fill="#8B1D31"/>
<path d="M257.054 232.08C265.995 230.368 275.831 232.08 282.981 238.133C288.146 241.662 291.127 247.411 295.599 251.649C301.16 254.977 307.816 256.893 311.789 262.443C317.949 269.402 318.146 279.389 317.949 288.164C316.756 310.456 305.037 330.526 289.739 345.96C274.143 362.703 251.992 374.503 228.844 373.294C217.322 372.991 205.402 369.157 196.659 361.191C186.626 351.606 183.448 336.979 184.142 323.465C185.931 297.339 199.043 273.234 216.726 254.773C223.777 247.512 231.627 240.752 240.964 236.92C246.129 234.804 251.493 232.99 257.054 232.08Z" fill="white"/>
<path d="M276.327 263.753C280.301 260.827 284.375 257.299 289.437 256.895C288.745 261.13 285.067 263.853 282.683 267.085C269.966 280.902 259.835 296.637 249.702 312.374C241.259 325.287 231.224 337.491 218.312 346.066C213.841 349.092 209.174 352.118 203.907 353.53C204.304 349.189 208.28 346.571 210.861 343.543C224.272 330.23 235 314.598 245.134 298.654C253.876 285.74 263.413 272.733 276.327 263.753Z" fill="#8B1D31"/>
<path d="M398.708 310.557C403.279 313.178 407.749 316.004 412.32 318.731C408.447 326.393 402.886 333.254 399.802 341.323C403.08 343.341 406.259 345.356 409.638 347.171C414.406 341.02 417.684 333.954 421.755 327.302C426.226 329.221 430.3 331.94 434.275 334.563C430.595 341.422 426.522 347.979 422.753 354.735C426.391 357.385 430.246 359.713 434.275 361.694C438.745 354.436 442.618 346.768 447.385 339.605C451.383 341.836 455.295 344.224 459.11 346.764C452.924 360.903 445.264 374.329 436.262 386.811C435.466 388.526 433.681 387.816 432.484 387.008C413.513 375.208 394.141 364.014 375.071 352.413C376.163 349.896 378.148 347.775 379.736 345.555C387.584 334.762 393.644 322.86 398.708 310.557ZM71.6919 319.229C84.6059 308.739 104.572 309.145 117.188 319.734C127.321 327.605 132.488 340.82 131.295 353.628C124.541 353.426 117.785 352.516 111.032 351.609C111.627 344.245 107.854 336.176 100.601 333.556C94.1445 330.733 85.998 332.648 81.5287 338.399C74.9737 345.861 77.1581 358.974 85.8004 363.814C88.1842 365.736 91.6619 365.231 93.9468 366.942C93.6486 373.601 92.5564 380.157 92.3571 386.815C74.4762 386.209 58.7797 370.473 57.4916 352.519C56.0977 339.91 61.7581 326.795 71.6919 319.229ZM349.437 377.326C354.009 374.304 357.386 369.864 361.755 366.639C364.636 370.975 367.419 375.208 369.898 379.652C363.442 384.69 356.091 388.63 350.032 394.171C351.225 397.905 354.004 401.033 356.191 404.262C363.045 400.727 369.007 395.484 375.759 391.754C378.491 395.436 381.011 399.275 383.308 403.251C377.845 408.295 370.992 411.625 365.328 416.667L365.13 417.271C367.117 421.107 369.799 424.434 372.086 428.065C379.337 423.425 386.09 418.079 393.441 413.541C395.629 417.475 398.905 420.802 400.694 425.041C389.37 435.528 376.657 444.407 363.145 451.772C362.155 452.577 360.959 452.175 360.564 451.065C349.836 435.232 339.507 419.288 328.878 403.455C326.891 400.429 324.507 397.606 323.115 394.175C332.35 389.334 341.192 383.783 349.437 377.326ZM135.865 368.352C145.003 366.938 154.64 368.755 162.489 373.698C170.632 379.146 176.791 387.616 178.879 397.303C180.765 406.985 179.473 417.677 173.91 425.946C165.965 438.552 150.169 445.313 135.766 442.085C119.872 439.261 106.76 424.735 105.668 408.295C103.478 389.633 117.585 371.077 135.865 368.352Z" fill="white"/>
<path d="M136.858 389.431C143.413 387.216 151.362 389.233 155.533 394.978C161.195 401.634 160.103 412.731 153.448 418.38C146.494 424.432 134.573 423.221 129.308 415.454C122.85 406.985 126.727 392.862 136.858 389.431Z" fill="#8B1D31"/>
<path d="M197.054 398.108C211.36 404.16 226.458 407.686 241.855 409.202C241.357 414.046 239.572 418.584 238.576 423.425C230.631 422.415 222.981 419.19 215.033 418.079C213.941 422.116 212.75 426.149 212.156 430.284C219.206 432.505 226.559 434.018 233.71 435.734C233.41 440.575 231.921 445.113 230.728 449.757C223.279 448.847 216.226 446.023 208.876 445.018C205.497 453.892 204.207 463.372 201.722 472.556C194.968 471.344 188.512 468.924 182.054 466.907C180.067 466.503 181.16 464.18 181.26 462.874C186.525 441.279 191.194 419.593 197.054 398.108ZM260.831 409.608C276.126 409.298 291.326 405.975 305.931 401.336C306.628 406.279 307.718 411.221 308.216 416.164C301.26 417.977 294.109 418.584 287.056 419.898C285.864 420.095 284.57 421.005 284.773 422.315C285.269 426.047 286.261 429.58 286.859 433.208C294.308 432.602 301.759 430.687 309.211 429.78C310.006 434.519 310.899 439.262 311.197 444.103C303.944 445.013 296.697 446.323 289.542 447.636C289.939 457.119 292.323 466.496 293.816 475.876C292.523 476.483 291.234 476.986 289.842 477.087C283.783 477.692 277.821 478.898 271.764 478.699C268.08 455.702 264.007 432.706 260.831 409.608ZM52.0249 217.656H55.1039V251.043H52.0249V217.656Z" fill="white"/>
<path d="M412.705 136.631C415.269 136.631 417.841 136.65 420.416 136.62C420.49 137.099 420.435 137.587 420.444 138.065C419.426 138.065 418.398 138.085 417.389 138.057C417.344 138.305 417.353 138.555 417.353 138.803C417.361 141.282 417.353 143.753 417.361 146.232C416.84 146.215 416.318 146.218 415.797 146.241C415.751 145.962 415.768 145.686 415.768 145.408C415.768 142.957 415.759 140.507 415.768 138.065C414.74 138.057 413.714 138.104 412.696 138.037C412.713 137.567 412.705 137.099 412.705 136.631ZM421.529 136.62C422.3 136.659 423.074 136.611 423.838 136.639C424.61 139.187 425.421 141.713 426.194 144.251C426.345 144.021 426.354 143.753 426.44 143.505C427.148 141.216 427.815 138.921 428.533 136.632C429.278 136.632 430.031 136.652 430.776 136.622C430.823 136.9 430.806 137.187 430.806 137.465V145.506C430.806 145.755 430.835 146.005 430.769 146.242C430.307 146.219 429.844 146.219 429.382 146.242C429.316 145.772 429.363 145.304 429.346 144.836C429.336 142.662 429.375 140.489 429.336 138.317C428.949 139.493 428.62 140.681 428.252 141.868C427.827 143.324 427.337 144.76 426.95 146.223C426.459 146.204 425.962 146.281 425.48 146.195C424.669 143.6 423.868 141.005 423.058 138.412C423.037 138.393 422.992 138.336 422.971 138.317C422.952 140.94 422.982 143.572 422.963 146.204C422.474 146.242 421.99 146.223 421.501 146.214C421.493 143.237 421.501 140.25 421.492 137.273C421.491 137.051 421.482 136.831 421.529 136.62ZM66.5078 251.042V224.021L70.0011 250.942L74.5728 250.842V217.757H72.0884L71.7261 242.168L68.7113 217.756L63.2485 217.858V251.042H66.5078Z" fill="white"/>
</svg>
