<svg width="36" height="37" viewBox="0 0 36 37" fill="none" xmlns="http://www.w3.org/2000/svg">
<path d="M32.115 17.5652L18.615 3.91347C18.075 3.3674 17.325 3.03369 16.5 3.03369H6C4.35 3.03369 3 4.39886 3 6.0674V16.6854C3 17.5196 3.33 18.2781 3.885 18.8393L17.385 32.491C17.925 33.0371 18.675 33.3708 19.5 33.3708C20.325 33.3708 21.075 33.0371 21.615 32.4758L32.115 21.8578C32.67 21.3118 33 20.5534 33 19.7191C33 18.8848 32.655 18.1112 32.115 17.5652ZM8.25 10.618C7.005 10.618 6 9.60167 6 8.34268C6 7.08369 7.005 6.0674 8.25 6.0674C9.495 6.0674 10.5 7.08369 10.5 8.34268C10.5 9.60167 9.495 10.618 8.25 10.618Z" fill="#404040"/>
</svg>
