<svg width="115" height="70" viewBox="0 0 115 70" fill="none" xmlns="http://www.w3.org/2000/svg">
<path d="M63.3293 15.3945L46.9067 37.5197H59.4806L50.9168 54.5265L68.3265 32.6432H54.5034L63.3293 15.3945Z" fill="black"/>
<path d="M15.2302 34.9606C15.2302 25.1878 18.5752 16.2008 24.1568 9.02723L21.9402 7.31445C15.9959 14.9514 12.4092 24.5428 12.4092 34.9606C12.4092 45.3784 15.9959 54.9498 21.9402 62.607L24.1568 60.8942C18.5953 53.7004 15.2302 44.7337 15.2302 34.9606Z" fill="black"/>
<path d="M99.9819 34.9606C99.9819 44.7134 96.6168 53.7004 91.0352 60.874L93.2517 62.5868C99.1961 54.9499 102.763 45.3784 102.763 34.9606C102.763 24.5428 99.1961 14.9514 93.2517 7.31445L91.0352 9.02723C96.6168 16.2008 99.9819 25.1878 99.9819 34.9606Z" fill="black"/>
<path d="M3.30091 34.9611C3.30091 22.4277 7.59293 10.9219 14.7463 1.73328L12.5298 0.0205078C5.03384 9.69266 0.5 21.803 0.5 34.9611C0.5 48.1193 5.03384 60.2298 12.5499 69.902L14.7665 68.1892C7.59293 59.0006 3.30091 47.4746 3.30091 34.9611Z" fill="black"/>
<path d="M111.932 34.9608C111.932 47.4743 107.62 58.9801 100.487 68.1889L102.703 69.9017C110.199 60.2295 114.733 48.1392 114.733 34.9608C114.733 21.7825 110.199 9.67215 102.683 0L100.467 1.733C107.62 10.9216 111.932 22.4274 111.932 34.9608Z" fill="black"/>
<path d="M27.1783 34.9611C27.1783 27.9489 29.5964 21.5007 33.6062 16.3422L31.3899 14.6294C27.0172 20.2513 24.3774 27.304 24.3774 34.9813C24.3774 42.6385 27.0172 49.6911 31.3899 55.313L33.6062 53.6003C29.5964 48.4215 27.1783 41.9735 27.1783 34.9611Z" fill="black"/>
<path d="M88.053 34.9608C88.053 41.9733 85.6348 48.4212 81.625 53.5798L83.8616 55.2925C88.2343 49.6504 90.8538 42.618 90.8538 34.9608C90.8538 27.2837 88.2343 20.251 83.8416 14.6089L81.625 16.3219C85.6348 21.4802 88.053 27.9284 88.053 34.9608Z" fill="black"/>
</svg>
