<svg width="230" height="59" viewBox="0 0 230 59" fill="none" xmlns="http://www.w3.org/2000/svg">
<path d="M23.4885 47.3273C21.339 46.6238 19.7757 44.9433 19.1894 42.7938C16.141 45.8031 13.6788 46.9756 10.0832 46.9756C2.30586 46.9756 0 42.2857 0 38.1039C0 31.0691 6.13593 26.9263 16.6491 26.9263C17.3526 26.9263 17.8606 26.9263 18.8377 27.0045V24.8159C18.8377 22.0801 18.7204 20.9467 17.8215 19.9697C16.8054 18.8363 15.5548 18.2891 13.6007 18.2891C10.0832 18.2891 5.58877 20.1651 3.55649 21.9629L1.0943 18.4845C5.27611 15.7488 9.7315 14.3027 14.3041 14.3027C18.6423 14.3027 21.6907 15.9833 23.0195 19.1489C23.723 20.8295 23.7621 23.2135 23.723 26.0274L23.4885 36.267C23.3712 41.3086 23.6839 42.6374 26.0288 43.8881L23.4885 47.3273ZM16.2973 30.2483C8.32454 30.2483 5.51061 32.945 5.51061 37.674C5.51061 41.3477 7.34748 43.3409 10.9431 43.3409C14.1478 43.3409 17.1181 41.4259 18.5641 38.4947L18.7595 30.4047C18.0951 30.3265 16.9617 30.2483 16.2973 30.2483Z" fill="black"/>
<path d="M35.7222 9.30074C33.5726 9.30074 31.853 7.6202 31.853 5.54884C31.853 3.43839 33.5726 1.67969 35.7222 1.67969C37.8717 1.67969 39.5913 3.36023 39.5913 5.47067C39.5913 7.6202 37.8717 9.30074 35.7222 9.30074ZM33.0646 46.1554V15.2022L38.1844 14.3814V46.1163H33.0646V46.1554Z" fill="black"/>
<path d="M61.0464 19.7743C60.7337 19.6571 60.1475 19.5398 59.6785 19.5398C57.8025 19.5398 55.8875 20.3606 54.4415 21.7675C52.9954 23.2136 52.6046 24.1515 52.6046 26.6919V46.1549H47.6802V22.1974C47.6802 18.1329 46.7813 16.0224 46.625 15.5925L51.5494 14.3028C51.7839 14.8109 52.7609 17.0386 52.5655 19.3444C54.8323 16.1787 58.1934 14.1855 61.3981 14.1855C62.1407 14.1855 62.9223 14.42 63.1177 14.4982L61.0464 19.7743Z" fill="black"/>
<path d="M76.6412 46.9758C67.9258 46.9758 63.0796 40.9181 63.0796 30.7567C63.0796 19.2664 70.0363 13.7949 77.1492 13.7949C80.6276 13.7949 83.1288 14.6157 85.9818 17.2342L82.5035 21.7677C80.6276 20.0872 78.9861 19.3446 77.1492 19.3446C74.9215 19.3446 73.1237 20.478 72.1076 22.5103C71.1696 24.4253 70.7788 27.3565 70.7788 31.3038C70.7788 35.6029 71.4823 38.3386 72.9283 39.9019C73.9445 41.0353 75.4687 41.6997 77.1492 41.6997C79.3769 41.6997 81.4874 40.6445 83.5978 38.5731L86.8807 42.7549C83.9496 45.647 80.9011 46.9758 76.6412 46.9758Z" fill="black"/>
<path d="M110.33 46.1551V24.6989C110.33 20.7516 108.962 19.6573 106.305 19.6573C103.842 19.6573 100.872 21.2206 98.6054 23.5265V46.1551H91.6097V8.59702C91.6097 5.78309 91.3752 3.35999 90.9844 1.71853L97.9801 0.233398C98.41 2.03119 98.6054 4.61062 98.6054 7.65904V14.3812C98.6054 16.1399 98.4882 17.625 98.4882 17.9377C101.654 15.1238 104.859 13.8341 108.259 13.8341C112.05 13.8341 114.942 15.6318 116.036 17.7032C116.857 19.2665 117.091 20.7125 117.091 23.8782V46.1551H110.33Z" fill="black"/>
<path d="M146.168 47.4839C144.214 46.7413 142.573 45.2562 141.83 43.2239C139.251 46.0769 136.476 47.0931 133.076 47.0931C125.767 47.0931 122.484 43.1067 122.484 37.5961C122.484 30.2877 128.034 26.6139 138.274 26.6139H140.423V24.9334C140.423 21.2987 139.798 19.3837 136.007 19.3837C131.903 19.3837 127.487 22.2367 126.471 23.0184L123.383 18.094C128.19 15.0846 132.177 13.7949 136.945 13.7949C141.947 13.7949 145.269 15.5927 146.676 19.032C147.223 20.3998 147.223 22.0804 147.184 26.7703L147.067 35.7983C146.989 40.0583 147.38 41.4261 149.842 43.1067L146.168 47.4839ZM138.977 31.2647C132.02 31.2647 129.949 33.2579 129.949 37.2443C129.949 40.2537 131.591 42.0905 134.365 42.0905C136.593 42.0905 138.704 40.8008 140.111 38.7685L140.228 31.2647C140.111 31.3038 139.446 31.2647 138.977 31.2647Z" fill="black"/>
<path d="M170.165 20.5952C169.461 20.3608 168.953 20.1653 168.211 20.1653C165.319 20.1653 162.856 22.2758 162.231 24.8552V46.1942H155.274V23.9172C155.274 19.9308 154.845 17.3514 154.141 15.4364L160.512 13.834C161.254 15.2801 161.723 17.0778 161.723 18.8365C164.263 15.3973 166.765 13.7949 169.852 13.7949C170.868 13.7949 171.494 13.9122 172.314 14.303L170.165 20.5952Z" fill="black"/>
<path d="M198.07 19.6576C196.741 19.6576 195.803 19.4231 195.608 19.3449C195.803 19.5403 197.679 21.5726 197.679 24.8164C197.679 30.288 193.067 34.4698 185.563 34.4698C183.297 35.2905 181.264 36.463 181.264 37.4791C181.264 38.6516 181.694 38.7688 189.237 38.7688C194.357 38.7688 199.828 41.3092 199.828 47.7578C199.828 54.4799 194.161 58.1146 185.642 58.1146C177.356 58.1146 171.376 55.4179 171.376 49.5165C171.376 48.2268 171.885 46.5071 172.002 46.1554H178.568C178.45 46.3899 178.06 47.5233 178.06 48.3831C178.06 51.3143 180.6 52.9166 185.055 52.9166C189.98 52.9166 192.637 50.9234 192.637 47.9923C192.637 44.553 189.745 43.615 183.805 43.615C175.207 43.615 173.331 41.9345 173.331 38.8079C173.331 35.6813 175.988 34.4307 179.388 33.3755C174.581 32.0076 172.119 28.9592 172.119 24.4647C172.119 18.0552 177.239 13.7952 184.86 13.7952C189.393 13.7952 192.012 15.3976 194.591 15.3976C196.663 15.3976 198.617 14.655 200.415 13.209L203.619 17.508C201.861 19.0713 200.219 19.6576 198.07 19.6576ZM184.821 19.0323C181.303 19.0323 179.31 20.9473 179.31 24.5038C179.31 28.1384 181.382 29.819 184.821 29.819C188.416 29.819 190.331 27.943 190.331 24.4647C190.292 20.9082 188.455 19.0323 184.821 19.0323Z" fill="black"/>
<path d="M210.928 32.2423V32.7503C210.928 37.1275 212.569 41.7393 218.822 41.7393C221.793 41.7393 224.372 40.684 226.795 38.6127L229.492 42.7945C226.131 45.6084 222.301 46.9763 218.002 46.9763C208.974 46.9763 203.307 40.5668 203.307 30.4445C203.307 24.8948 204.518 21.221 207.293 18.0944C209.872 15.1633 213.038 13.8345 217.064 13.8345C220.229 13.8345 223.121 14.6552 225.818 17.0783C228.593 19.5796 230 23.4487 230 30.7962V32.2423H210.928ZM217.064 19.0324C213.155 19.0324 211.006 22.0808 211.006 27.2006H222.809C222.809 22.0808 220.542 19.0324 217.064 19.0324Z" fill="black"/>
</svg>
